<svg width="132" height="79" viewBox="0 0 132 79" fill="none" xmlns="http://www.w3.org/2000/svg">
    <path fill-rule="evenodd" clip-rule="evenodd" d="M84.63 8.51C84.81 8.62 84.9 8.81 84.9 9L84.82 9.29C83.52 11.48 82.36 13.99 81.38 16.77C81.3 16.99 81.1 17.14 80.87 17.15C80.84 17.15 80.8 17.15 80.77 17.14C76.7 16.16 72.39 15.59 67.95 15.44C67.64 15.44 67.39 15.17 67.39 14.86V3.73C67.39 3.57 67.46 3.42 67.57 3.31C67.67 3.22 67.8 3.16 67.93 3.16C73.83 3.55 79.6 5.4 84.62 8.52L84.63 8.51ZM46.48 8.51C46.3 8.62 46.21 8.81 46.21 9L46.29 9.29C47.59 11.48 48.75 13.99 49.73 16.77C49.81 16.99 50.01 17.14 50.24 17.15C50.27 17.15 50.31 17.15 50.34 17.14C54.41 16.16 58.72 15.59 63.16 15.44C63.47 15.44 63.72 15.17 63.72 14.86V3.73C63.72 3.57 63.65 3.42 63.54 3.31C63.44 3.22 63.31 3.16 63.18 3.16C57.28 3.55 51.51 5.4 46.49 8.52L46.48 8.51ZM42.53 11.33C42.63 11.25 42.74 11.21 42.86 11.2C42.88 11.2 42.91 11.2 42.93 11.2C43.1 11.23 43.24 11.33 43.33 11.48C44.4 13.33 45.36 15.41 46.18 17.68L46.21 17.88L46.15 18.13C46.08 18.27 45.96 18.38 45.81 18.43C40.88 20.08 36.68 22.3 33.34 25.01C33.24 25.09 33.13 25.13 33.01 25.14C32.9 25.14 32.79 25.09 32.69 25.02C32.55 24.91 32.47 24.74 32.47 24.56L32.52 24.32C34.81 19.31 38.27 14.82 42.52 11.33H42.53ZM29.53 36.9V37.03C29.52 37.16 29.56 37.29 29.64 37.39C29.75 37.52 29.91 37.6 30.08 37.61H49.05C49.2 37.61 49.35 37.55 49.46 37.43C49.57 37.32 49.62 37.18 49.62 37.03V37.01C49.46 31.87 48.78 26.94 47.61 22.38C47.57 22.22 47.47 22.09 47.33 22.02C47.26 21.98 47.17 21.96 47.09 21.95C47.04 21.95 46.98 21.96 46.93 21.98C37.42 25.24 30.91 30.82 29.53 36.9ZM63.17 19.06C59.16 19.22 55.25 19.75 51.55 20.65C51.4 20.69 51.27 20.78 51.19 20.91L51.11 21.21L51.13 21.35C52.41 26.27 53.15 31.56 53.31 37.05C53.31 37.36 53.57 37.61 53.89 37.61H63.15C63.47 37.61 63.73 37.35 63.73 37.03V19.63C63.73 19.47 63.67 19.32 63.55 19.21C63.45 19.11 63.32 19.06 63.19 19.05L63.17 19.06ZM67.94 19.06C67.8 19.06 67.68 19.12 67.58 19.22C67.47 19.33 67.4 19.48 67.4 19.64V37.04C67.4 37.36 67.66 37.62 67.98 37.62H77.24C77.55 37.62 77.81 37.37 77.82 37.06C77.98 31.57 78.72 26.29 80 21.36L80.02 21.22L79.94 20.92C79.86 20.79 79.73 20.69 79.58 20.66C75.87 19.76 71.96 19.23 67.96 19.07L67.94 19.06ZM84.02 21.95C83.94 21.95 83.86 21.98 83.78 22.02C83.64 22.1 83.54 22.23 83.5 22.38C82.33 26.94 81.65 31.86 81.49 37.01V37.03C81.49 37.18 81.55 37.32 81.65 37.43C81.76 37.54 81.9 37.6 82.06 37.61H101.03C101.2 37.61 101.36 37.53 101.47 37.39C101.55 37.29 101.6 37.16 101.6 37.03V36.9C100.2 30.82 93.7 25.24 84.18 21.98C84.13 21.96 84.08 21.95 84.02 21.95ZM88.25 11.2C88.25 11.2 88.2 11.2 88.18 11.2C88.01 11.23 87.87 11.33 87.78 11.48C86.71 13.33 85.75 15.41 84.93 17.68L84.9 17.88L84.96 18.13C85.03 18.27 85.15 18.38 85.3 18.43C90.23 20.08 94.43 22.3 97.77 25.01C97.87 25.09 97.98 25.13 98.1 25.14C98.21 25.14 98.32 25.09 98.42 25.02C98.56 24.91 98.64 24.74 98.64 24.56L98.59 24.32C96.3 19.31 92.84 14.82 88.59 11.33C88.49 11.25 88.38 11.21 88.26 11.2H88.25ZM82.06 41.22C81.91 41.22 81.76 41.29 81.65 41.4C81.54 41.51 81.49 41.65 81.49 41.8V41.82C81.65 46.96 82.33 51.88 83.5 56.45C83.54 56.61 83.64 56.74 83.78 56.81C83.86 56.85 83.94 56.87 84.02 56.88C84.07 56.88 84.12 56.87 84.17 56.85C93.68 53.59 100.19 48.01 101.57 41.93V41.8C101.58 41.67 101.54 41.54 101.46 41.44C101.35 41.31 101.19 41.23 101.02 41.22H82.05H82.06ZM67.97 41.22C67.65 41.22 67.39 41.48 67.39 41.8V59.2C67.39 59.36 67.45 59.51 67.57 59.62C67.67 59.72 67.8 59.77 67.93 59.78C71.94 59.63 75.85 59.09 79.56 58.19C79.71 58.15 79.84 58.06 79.92 57.93L80 57.63L79.98 57.49C78.7 52.56 77.96 47.28 77.8 41.79C77.8 41.48 77.54 41.23 77.22 41.23H67.96L67.97 41.22ZM53.88 41.22C53.57 41.22 53.31 41.47 53.3 41.78C53.13 47.27 52.4 52.55 51.12 57.48L51.1 57.62L51.18 57.92C51.26 58.05 51.39 58.15 51.54 58.18C55.25 59.08 59.16 59.61 63.17 59.77C63.31 59.77 63.43 59.7 63.53 59.61C63.64 59.5 63.71 59.35 63.71 59.19V41.79C63.71 41.47 63.45 41.21 63.13 41.21H53.87L53.88 41.22ZM30.09 41.22C29.92 41.22 29.76 41.3 29.65 41.44C29.57 41.54 29.52 41.67 29.52 41.8V41.93C30.92 48.01 37.42 53.59 46.93 56.85C46.98 56.87 47.03 56.88 47.08 56.88C47.16 56.88 47.25 56.85 47.32 56.81C47.46 56.73 47.56 56.6 47.6 56.45C48.77 51.88 49.45 46.96 49.61 41.82V41.8C49.61 41.65 49.55 41.51 49.45 41.4C49.34 41.29 49.2 41.23 49.04 41.22H30.07H30.09ZM32.7 53.8C32.79 53.73 32.91 53.69 33.02 53.68C33.14 53.68 33.25 53.73 33.35 53.81C36.69 56.53 40.88 58.74 45.82 60.39C45.97 60.44 46.09 60.55 46.16 60.69L46.22 60.94L46.18 61.14C45.35 63.42 44.4 65.51 43.34 67.34C43.26 67.49 43.11 67.59 42.94 67.62C42.92 67.62 42.9 67.62 42.87 67.62C42.75 67.62 42.63 67.57 42.53 67.49C38.28 63.99 34.82 59.5 32.53 54.49L32.48 54.25C32.48 54.08 32.56 53.9 32.7 53.79V53.8ZM46.21 69.83C46.21 70.02 46.31 70.21 46.48 70.32C51.5 73.43 57.27 75.29 63.17 75.68C63.31 75.68 63.44 75.62 63.54 75.52C63.66 75.41 63.72 75.26 63.72 75.1V63.97C63.72 63.66 63.47 63.4 63.16 63.39C58.72 63.24 54.41 62.67 50.34 61.69C50.31 61.69 50.27 61.68 50.24 61.68C50.01 61.69 49.81 61.84 49.73 62.06C48.75 64.84 47.59 67.36 46.29 69.54L46.21 69.83ZM80.88 61.67C80.88 61.67 80.81 61.67 80.78 61.68C76.71 62.66 72.4 63.23 67.96 63.38C67.65 63.39 67.4 63.65 67.4 63.96V75.09C67.4 75.25 67.47 75.4 67.58 75.51C67.68 75.6 67.81 75.66 67.95 75.67C73.85 75.28 79.62 73.43 84.64 70.31C84.82 70.2 84.91 70.01 84.91 69.82L84.83 69.53C83.53 67.34 82.38 64.83 81.39 62.05C81.31 61.83 81.11 61.68 80.88 61.67ZM98.09 53.68C98.2 53.68 98.32 53.73 98.41 53.8C98.56 53.91 98.63 54.08 98.63 54.26L98.58 54.5C96.29 59.51 92.83 64 88.58 67.5C88.48 67.58 88.37 67.62 88.24 67.63C88.22 67.63 88.19 67.63 88.17 67.63C88 67.6 87.86 67.5 87.77 67.35C86.71 65.52 85.75 63.43 84.93 61.15L84.89 60.95L84.95 60.7C85.02 60.56 85.14 60.45 85.29 60.4C90.22 58.75 94.41 56.53 97.76 53.82C97.86 53.74 97.97 53.7 98.09 53.69V53.68ZM85.7 73.44C107.05 64.17 131.11 45.59 131.11 39.41C131.11 33.78 107.53 15.29 86.35 5.77C80.37 2.11 73.33 0 65.8 0C65.72 0 65.63 0 65.55 0C65.47 0 65.38 0 65.3 0C57.77 0 50.74 2.11 44.75 5.77C23.58 15.29 0 33.78 0 39.41C0 45.59 24.07 64.17 45.41 73.44C51.25 76.86 58.05 78.82 65.3 78.82C65.38 78.82 65.47 78.82 65.55 78.82C65.63 78.82 65.72 78.82 65.8 78.82C73.06 78.82 79.85 76.86 85.69 73.44H85.7Z" fill="white"/>
</svg>
